<svg width="512" height="512" viewBox="0 0 512 512" fill="none" xmlns="http://www.w3.org/2000/svg">
<path d="M256 199.319C251.948 199.319 248.571 200.669 245.195 204.043C230.338 221.587 224.935 232.383 224.935 249.927C224.935 289.064 248.571 307.957 249.247 378.134C249.247 442.912 216.156 478 149.299 478C86.4935 478 48 452.359 48 366.663C48 275.568 90.5455 239.805 153.351 225.635C195.221 218.888 222.909 197.295 222.909 183.799C222.909 173.678 200.623 149.386 168.883 141.289C126.338 124.419 98.6494 113.623 98.6494 78.535C98.6494 47.4955 119.584 34 150.649 34C193.87 34 208.727 67.0638 209.403 99.4529C214.13 123.745 222.234 138.59 247.221 160.857C250.597 162.881 253.299 164.231 256 164.231C258.701 164.231 261.403 162.881 264.104 160.857C289.766 138.59 297.87 123.745 302.597 99.4529C302.597 67.0638 318.13 34 361.351 34C392.416 34 413.351 47.4955 413.351 78.535C413.351 113.623 384.987 124.419 343.117 141.289C311.377 149.386 288.416 173.003 288.416 183.799C288.416 197.97 316.779 218.888 357.974 225.635C421.455 239.805 464 275.568 464 366.663C464 452.359 425.506 478 362.701 478C295.844 478 262.753 442.912 262.753 378.134C262.753 307.957 287.065 289.064 287.065 249.927C287.065 233.058 281.662 221.587 266.805 204.043C263.429 200.669 260.052 199.319 256 199.319Z" fill="#FF0000"/>
</svg>
